<svg xmlns="http://www.w3.org/2000/svg" fill="none" viewBox="0 0 157 160"><g filter="url(#a)"><path d="M101.844 101.068a4.486 4.486 0 0 1 3.572-3.172l.31-.052c2.9-.481 5.505 1.642 5.244 4.571-.54 6.054-2.475 16.429-9.052 27.494a.514.514 0 0 1-.954-.284l.981-22.329a.764.764 0 0 0-.714-.795.763.763 0 0 1-.684-.974l1.297-4.459Z" fill="url(#b)" fill-rule="evenodd" clip-rule="evenodd"/></g><g filter="url(#c)"><path d="M64.542 100.603a4.482 4.482 0 0 0-3.502-3.433l-.367-.073c-2.922-.581-5.63 1.483-5.462 4.457.344 6.084 1.94 16.493 8.118 27.737a.512.512 0 0 0 .959-.251l-.259-22.338a.768.768 0 0 1 .748-.777.77.77 0 0 0 .73-.934l-.965-4.388Z" fill="url(#d)" fill-rule="evenodd" clip-rule="evenodd"/></g><path d="M84.778 6.442c-10.972-.207-28.586 25.998-27.62 50.603.992 24.638 11.698 60.984 11.698 60.984l14.063.383 14.07.109s11.913-35.963 13.722-60.526c1.757-24.632-15.048-51.388-25.933-51.553Z" fill="url(#e)" fill-rule="evenodd" clip-rule="evenodd"/><path d="M100.118 19.25c-13.675-6.166-30.061-1.823-30.25-1.787l-.087-.257c.188-.035 16.668-4.396 30.404 1.778l-.067.266Z" fill="#4B50DA"/><path d="m81.093 7.255 8.207.535c-.034.026-4.14-3.038-8.207-.535Z" fill="#53345F" fill-rule="evenodd" clip-rule="evenodd"/><path d="M82.212 6.888s2.19-.374 4.65-.04c0 0-.841-3.933-2.255-4.095-1.415-.162-2.395 4.135-2.395 4.135Z" fill="url(#f)" fill-rule="evenodd" clip-rule="evenodd"/><path d="M62.766 94.042s23.858-7.391 41.709-1.605c-2.49 10.233-4.792 23.087-9.696 23.629-2.23.246-.526 1.849-15.3 1.489-14.773-.359-14.806-11.46-16.713-23.513Z" fill="url(#g)" fill-rule="evenodd" clip-rule="evenodd"/><path d="M83.596 22.566c-9.92.608-17.161 12.304-17.793 22.576-.631 10.271 8.696 16.732 18.731 16.63 10.036-.104 18.475-6.902 17.533-18.181-.91-10.176-7.471-21.7-18.47-21.025Z" fill="url(#h)" fill-rule="evenodd" clip-rule="evenodd"/><path d="M83.596 21.436c-9.92.608-17.161 12.304-17.793 22.576-.631 10.271 8.696 16.733 18.731 16.63 10.036-.104 18.475-6.902 17.533-18.181-.876-10.202-7.471-21.7-18.47-21.025Z" fill="url(#i)" fill-rule="evenodd" clip-rule="evenodd"/><path d="M84.196 25.123c-8.886.412-13.464 9.598-13.974 17.625-.51 8.028 6.812 13.055 14.707 12.967 7.895-.089 14.512-5.392 13.75-14.173-.655-8.002-5.195-16.868-14.483-16.419Z" fill="url(#j)" fill-rule="evenodd" clip-rule="evenodd"/><path d="M93.277 52.968c-2.335 1.669-5.24 2.588-8.392 2.618-7.526.078-15.15-5.205-14.663-12.838a21.817 21.817 0 0 1 1.884-7.566c2.16-4.656 6.176-8.357 12.065-8.75 8.722-.556 13.149 8.02 13.792 15.654.47 4.86-1.5 8.565-4.686 10.882Z" fill="url(#k)" fill-rule="evenodd" clip-rule="evenodd"/><path d="m84.305 61.77-.478 28.596.257.004.478-28.596-.257-.004Z" fill="url(#l)"/><path d="m62.809 94.17-.087-.255c27.283-7.416 41.657-1.674 41.803-1.624l-.093.232c-.18-.025-14.468-5.724-41.623 1.648Z" fill="url(#m)"/><path d="m60.842 84.585-.121-.23c.068-.053 8.552-5.377 23.474-5.917l-.007.274c-14.862.548-23.278 5.82-23.346 5.873Z" fill="url(#n)"/><path d="M71.455 116.539s12.156-1.659 24.136-1.084l-.495 5.549-22.77.31-.871-4.775Z" fill="url(#o)" fill-rule="evenodd" clip-rule="evenodd"/><path d="M66.587 22.272s15.686-7.737 35.79.585l-2.243-3.727s-11.6-5.7-30.31-1.795l-3.237 4.937Z" fill="url(#p)" fill-rule="evenodd" clip-rule="evenodd"/><path d="M83.437 80.414c-.005.488-.422.859-.91.854-.488-.006-.86-.423-.854-.91.005-.489.422-.86.91-.855.454.031.86.422.854.91Z" fill="url(#q)" fill-rule="evenodd" clip-rule="evenodd"/><path d="M83.222 80.415a.735.735 0 0 1-.706.699.735.735 0 0 1-.698-.706.735.735 0 0 1 .706-.699c.394.023.721.312.698.706Z" fill="url(#r)" fill-rule="evenodd" clip-rule="evenodd"/><path d="M83.476 76.08c-.005.488-.422.859-.91.854-.488-.005-.86-.422-.854-.91.005-.489.422-.86.91-.855.488.006.86.423.854.91Z" fill="url(#s)" fill-rule="evenodd" clip-rule="evenodd"/><path d="M83.297 76.055a.735.735 0 0 1-.706.698.735.735 0 0 1-.699-.706.735.735 0 0 1 .706-.698.735.735 0 0 1 .699.706Z" fill="url(#t)" fill-rule="evenodd" clip-rule="evenodd"/><path d="M69.321 46.231a.735.735 0 0 1-.706.699.735.735 0 0 1-.698-.706.735.735 0 0 1 .706-.699.735.735 0 0 1 .698.706Z" fill="url(#u)" fill-rule="evenodd" clip-rule="evenodd"/><path d="M71.068 33.82a.735.735 0 0 1-.706.698.735.735 0 0 1-.698-.706.735.735 0 0 1 .706-.698.735.735 0 0 1 .698.706Z" fill="url(#v)" fill-rule="evenodd" clip-rule="evenodd"/><path d="M77.405 56.22a.735.735 0 0 1-.706.699.735.735 0 0 1-.698-.706.735.735 0 0 1 .706-.699c.368-.01.661.304.698.706Z" fill="url(#w)" fill-rule="evenodd" clip-rule="evenodd"/><path d="M90.978 57.514a.735.735 0 0 1-.706.699.735.735 0 0 1-.698-.706.735.735 0 0 1 .706-.698c.428-.003.721.311.698.705Z" fill="url(#x)" fill-rule="evenodd" clip-rule="evenodd"/><path d="M100.325 49.435a.735.735 0 0 1-.706.698.735.735 0 0 1-.698-.706.735.735 0 0 1 .705-.698c.429-.003.722.312.699.706Z" fill="url(#y)" fill-rule="evenodd" clip-rule="evenodd"/><path d="M99.208 33.823a.735.735 0 0 1-.706.698c-.368.011-.688-.338-.699-.706a.735.735 0 0 1 .706-.698.735.735 0 0 1 .699.706Z" fill="url(#z)" fill-rule="evenodd" clip-rule="evenodd"/><path d="M92.403 25.657a.735.735 0 0 1-.706.699.735.735 0 0 1-.698-.706.735.735 0 0 1 .706-.699.735.735 0 0 1 .698.706Z" fill="url(#A)" fill-rule="evenodd" clip-rule="evenodd"/><path d="M80.747 24.196a.735.735 0 0 1-.706.699.735.735 0 0 1-.699-.706.735.735 0 0 1 .706-.699.735.735 0 0 1 .699.706Z" fill="url(#B)" fill-rule="evenodd" clip-rule="evenodd"/><g filter="url(#C)"><path d="m89.475 92.874 2.32.01-2.956 37.056-1.584-.032 2.22-37.034Z" fill="url(#D)" fill-rule="evenodd" clip-rule="evenodd"/></g><g filter="url(#E)"><path d="M88.979 101.147c.046-.775-1.079-.929-1.242-.169a.631.631 0 0 0-.014.121l-.468 28.809 1.724-28.761Z" fill="url(#F)" fill-rule="evenodd" clip-rule="evenodd"/></g><path d="M108.177 36.844s4.105-.756 1.046 3.992l-1.046-3.992Z" fill="url(#G)" fill-rule="evenodd" clip-rule="evenodd"/><path d="M60.513 35.502s-3.812 1.07-1.156 3.784l1.156-3.784Z" fill="url(#H)" fill-rule="evenodd" clip-rule="evenodd"/><path d="M69.16 92.405c.003.428-.26.79-.594.775-.334-.015-.56-.381-.562-.81-.003-.428.26-.79.594-.774.334.014.559.381.562.81Z" fill="url(#I)" fill-rule="evenodd" clip-rule="evenodd"/><path d="M98.528 90.773c.003.429-.294.816-.654.767-.334-.015-.653-.364-.622-.818-.003-.428.294-.815.654-.766.36.049.62.39.622.817Z" fill="url(#J)" fill-rule="evenodd" clip-rule="evenodd"/><path d="M84.773 90.371c.003.429-.354.808-.808.777-.428.003-.807-.354-.776-.808-.003-.429.354-.808.808-.777a.81.81 0 0 1 .776.808Z" fill="url(#K)" fill-rule="evenodd" clip-rule="evenodd"/><path d="m76.116 132.619-4.93-17.769 9.983-.328-3.264 18.414-1.789-.317Z" fill="url(#L)" fill-opacity=".8" opacity=".88"/><path d="m90.34 133.596-5.514-19.87 11.164-.367-3.65 20.592-2-.355Z" fill="url(#M)" fill-opacity=".8" opacity=".88"/><path d="m82.429 137.83-4.007-18.564 10.244-.417-4.424 19.299-1.813-.318Z" fill="url(#N)" fill-opacity=".8" opacity=".88"/><defs><linearGradient id="b" x1="33.876" x2="162.653" y1="47.252" y2="102.167" gradientUnits="userSpaceOnUse"><stop offset=".649" stop-color="#1673FF"/><stop offset=".905" stop-color="#5192E2"/></linearGradient><linearGradient id="d" x1="-22.196" x2="120.343" y1="20.6" y2="35.523" gradientUnits="userSpaceOnUse"><stop offset=".649" stop-color="#1673FF"/><stop offset=".905" stop-color="#5192E2"/></linearGradient><linearGradient id="e" x1="123.322" x2="12.547" y1=".431" y2="-38.406" gradientUnits="userSpaceOnUse"><stop offset=".121" stop-color="#5CB6FF"/><stop offset=".692" stop-color="#005BFF"/></linearGradient><linearGradient id="f" x1="83.691" x2="85.039" y1="15.145" y2="-3.371" gradientUnits="userSpaceOnUse"><stop offset=".444" stop-color="#D3ECFF"/><stop offset="1" stop-color="#548EF7"/></linearGradient><linearGradient id="g" x1="106.175" x2="58.559" y1="70.842" y2="42.365" gradientUnits="userSpaceOnUse"><stop offset=".121" stop-color="#5CB6FF"/><stop offset=".655" stop-color="#56A8EB"/><stop offset="1" stop-color="#005BFF"/></linearGradient><linearGradient id="h" x1="-22.849" x2="172.6" y1="-58.477" y2="11.139" gradientUnits="userSpaceOnUse"><stop offset=".649" stop-color="#1673FF"/><stop offset=".905" stop-color="#5192E2"/></linearGradient><linearGradient id="i" x1="-22.85" x2="172.61" y1="-59.606" y2="10.058" gradientUnits="userSpaceOnUse"><stop offset=".649" stop-color="#1673FF"/><stop offset=".905" stop-color="#5192E2"/></linearGradient><linearGradient id="j" x1=".094" x2="154.479" y1="-39.298" y2="15.571" gradientUnits="userSpaceOnUse"><stop offset=".649" stop-color="#1673FF"/><stop offset=".905" stop-color="#5192E2"/></linearGradient><linearGradient id="k" x1="80.195" x2="87.89" y1="98.148" y2="-13.056" gradientUnits="userSpaceOnUse"><stop offset=".444" stop-color="#D3ECFF"/><stop offset="1" stop-color="#548EF7"/></linearGradient><linearGradient id="l" x1="82.921" x2="84.59" y1="93.576" y2="93.594" gradientUnits="userSpaceOnUse"><stop offset=".649" stop-color="#1673FF"/><stop offset=".905" stop-color="#5192E2"/></linearGradient><linearGradient id="m" x1="11.029" x2="136.812" y1="32.506" y2="100.089" gradientUnits="userSpaceOnUse"><stop offset=".649" stop-color="#1673FF"/><stop offset=".905" stop-color="#5192E2"/></linearGradient><linearGradient id="n" x1="39.147" x2="87.7" y1="60.223" y2="96.781" gradientUnits="userSpaceOnUse"><stop offset=".649" stop-color="#1673FF"/><stop offset=".905" stop-color="#5192E2"/></linearGradient><linearGradient id="o" x1="118.5" x2="78.269" y1="83.5" y2="64.663" gradientUnits="userSpaceOnUse"><stop offset=".121" stop-color="#5CB6FF"/><stop offset=".271" stop-color="#56A8EB"/><stop offset="1" stop-color="#005BFF"/></linearGradient><linearGradient id="p" x1="14.371" x2="139.857" y1="-41.034" y2="15.12" gradientUnits="userSpaceOnUse"><stop offset=".649" stop-color="#1673FF"/><stop offset=".905" stop-color="#5192E2"/></linearGradient><linearGradient id="q" x1="77.617" x2="86.656" y1="75.677" y2="78.897" gradientUnits="userSpaceOnUse"><stop offset=".649" stop-color="#1673FF"/><stop offset=".905" stop-color="#5192E2"/></linearGradient><linearGradient id="r" x1="78.651" x2="85.748" y1="76.727" y2="79.332" gradientUnits="userSpaceOnUse"><stop offset=".649" stop-color="#1673FF"/><stop offset=".905" stop-color="#5192E2"/></linearGradient><linearGradient id="s" x1="77.655" x2="86.704" y1="71.345" y2="74.603" gradientUnits="userSpaceOnUse"><stop offset=".649" stop-color="#1673FF"/><stop offset=".905" stop-color="#5192E2"/></linearGradient><linearGradient id="t" x1="78.727" x2="85.812" y1="72.365" y2="74.917" gradientUnits="userSpaceOnUse"><stop offset=".649" stop-color="#1673FF"/><stop offset=".905" stop-color="#5192E2"/></linearGradient><linearGradient id="u" x1="68.411" x2="68.748" y1="48.934" y2="43.595" gradientUnits="userSpaceOnUse"><stop offset=".444" stop-color="#D3ECFF"/><stop offset="1" stop-color="#548EF7"/></linearGradient><linearGradient id="v" x1="70.158" x2="70.495" y1="36.523" y2="31.183" gradientUnits="userSpaceOnUse"><stop offset=".444" stop-color="#D3ECFF"/><stop offset="1" stop-color="#548EF7"/></linearGradient><linearGradient id="w" x1="76.495" x2="76.832" y1="58.923" y2="53.584" gradientUnits="userSpaceOnUse"><stop offset=".444" stop-color="#D3ECFF"/><stop offset="1" stop-color="#548EF7"/></linearGradient><linearGradient id="x" x1="90.049" x2="90.328" y1="60.233" y2="54.839" gradientUnits="userSpaceOnUse"><stop offset=".444" stop-color="#D3ECFF"/><stop offset="1" stop-color="#548EF7"/></linearGradient><linearGradient id="y" x1="99.395" x2="99.675" y1="52.153" y2="46.759" gradientUnits="userSpaceOnUse"><stop offset=".444" stop-color="#D3ECFF"/><stop offset="1" stop-color="#548EF7"/></linearGradient><linearGradient id="z" x1="98.298" x2="98.635" y1="36.526" y2="31.186" gradientUnits="userSpaceOnUse"><stop offset=".444" stop-color="#D3ECFF"/><stop offset="1" stop-color="#548EF7"/></linearGradient><linearGradient id="A" x1="91.493" x2="91.83" y1="28.36" y2="23.021" gradientUnits="userSpaceOnUse"><stop offset=".444" stop-color="#D3ECFF"/><stop offset="1" stop-color="#548EF7"/></linearGradient><linearGradient id="B" x1="79.837" x2="80.174" y1="26.899" y2="21.56" gradientUnits="userSpaceOnUse"><stop offset=".444" stop-color="#D3ECFF"/><stop offset="1" stop-color="#548EF7"/></linearGradient><linearGradient id="D" x1="9.36" x2="156.011" y1="32.371" y2="76.7" gradientUnits="userSpaceOnUse"><stop offset=".649" stop-color="#1673FF"/><stop offset=".905" stop-color="#5192E2"/></linearGradient><linearGradient id="F" x1="11.505" x2="152.023" y1="34.847" y2="74.484" gradientUnits="userSpaceOnUse"><stop offset=".649" stop-color="#1673FF"/><stop offset=".905" stop-color="#5192E2"/></linearGradient><linearGradient id="G" x1="109.627" x2="112.253" y1="45.169" y2="32.664" gradientUnits="userSpaceOnUse"><stop offset=".444" stop-color="#D3ECFF"/><stop offset="1" stop-color="#548EF7"/></linearGradient><linearGradient id="H" x1="58.755" x2="58.238" y1="42.896" y2="31.985" gradientUnits="userSpaceOnUse"><stop offset=".444" stop-color="#D3ECFF"/><stop offset="1" stop-color="#548EF7"/></linearGradient><linearGradient id="I" x1="64.577" x2="71.921" y1="88.47" y2="90.784" gradientUnits="userSpaceOnUse"><stop offset=".649" stop-color="#1673FF"/><stop offset=".905" stop-color="#5192E2"/></linearGradient><linearGradient id="J" x1="93.708" x2="101.365" y1="86.668" y2="89.08" gradientUnits="userSpaceOnUse"><stop offset=".649" stop-color="#1673FF"/><stop offset=".905" stop-color="#5192E2"/></linearGradient><linearGradient id="K" x1="79.479" x2="87.718" y1="86.062" y2="88.981" gradientUnits="userSpaceOnUse"><stop offset=".649" stop-color="#1673FF"/><stop offset=".905" stop-color="#5192E2"/></linearGradient><linearGradient id="L" x1="72.667" x2="73.694" y1="115.276" y2="136.897" gradientUnits="userSpaceOnUse"><stop offset=".107" stop-color="#7AC6FF"/><stop offset=".885" stop-color="#1D147C" stop-opacity=".19"/></linearGradient><linearGradient id="M" x1="86.483" x2="87.63" y1="114.202" y2="138.381" gradientUnits="userSpaceOnUse"><stop offset=".107" stop-color="#7AC6FF"/><stop offset=".885" stop-color="#1D147C" stop-opacity=".19"/></linearGradient><linearGradient id="N" x1="79.915" x2="81.168" y1="119.702" y2="142.245" gradientUnits="userSpaceOnUse"><stop offset=".107" stop-color="#7AC6FF"/><stop offset=".885" stop-color="#1D147C" stop-opacity=".19"/></linearGradient><filter id="a" width="48.472" height="70.385" x="81.517" y="87.776" color-interpolation-filters="sRGB" filterUnits="userSpaceOnUse"><feFlood flood-opacity="0" result="BackgroundImageFix"/><feColorMatrix in="SourceAlpha" result="hardAlpha" type="matrix" values="0 0 0 0 0 0 0 0 0 0 0 0 0 0 0 0 0 0 127 0"/><feOffset dy="9"/><feGaussianBlur stdDeviation="9.5"/><feComposite in2="hardAlpha" operator="out"/><feColorMatrix type="matrix" values="0 0 0 0 0 0 0 0 0 0 0 0 0 0 0 0 0 0 0.15 0"/><feBlend in2="BackgroundImageFix" mode="normal" result="effect1_dropShadow_165_3591"/><feBlend in="SourceGraphic" in2="effect1_dropShadow_165_3591" mode="normal" result="shape"/></filter><filter id="c" width="48.322" height="70.558" x="36.203" y="86.999" color-interpolation-filters="sRGB" filterUnits="userSpaceOnUse"><feFlood flood-opacity="0" result="BackgroundImageFix"/><feColorMatrix in="SourceAlpha" result="hardAlpha" type="matrix" values="0 0 0 0 0 0 0 0 0 0 0 0 0 0 0 0 0 0 127 0"/><feOffset dy="9"/><feGaussianBlur stdDeviation="9.5"/><feComposite in2="hardAlpha" operator="out"/><feColorMatrix type="matrix" values="0 0 0 0 0 0 0 0 0 0 0 0 0 0 0 0 0 0 0.15 0"/><feBlend in2="BackgroundImageFix" mode="normal" result="effect1_dropShadow_165_3591"/><feBlend in="SourceGraphic" in2="effect1_dropShadow_165_3591" mode="normal" result="shape"/></filter><filter id="C" width="42.541" height="75.067" x="68.255" y="82.874" color-interpolation-filters="sRGB" filterUnits="userSpaceOnUse"><feFlood flood-opacity="0" result="BackgroundImageFix"/><feColorMatrix in="SourceAlpha" result="hardAlpha" type="matrix" values="0 0 0 0 0 0 0 0 0 0 0 0 0 0 0 0 0 0 127 0"/><feOffset dy="9"/><feGaussianBlur stdDeviation="9.5"/><feComposite in2="hardAlpha" operator="out"/><feColorMatrix type="matrix" values="0 0 0 0 0 0 0 0 0 0 0 0 0 0 0 0 0 0 0.15 0"/><feBlend in2="BackgroundImageFix" mode="normal" result="effect1_dropShadow_165_3591"/><feBlend in="SourceGraphic" in2="effect1_dropShadow_165_3591" mode="normal" result="shape"/></filter><filter id="E" width="39.726" height="67.428" x="68.255" y="90.481" color-interpolation-filters="sRGB" filterUnits="userSpaceOnUse"><feFlood flood-opacity="0" result="BackgroundImageFix"/><feColorMatrix in="SourceAlpha" result="hardAlpha" type="matrix" values="0 0 0 0 0 0 0 0 0 0 0 0 0 0 0 0 0 0 127 0"/><feOffset dy="9"/><feGaussianBlur stdDeviation="9.5"/><feComposite in2="hardAlpha" operator="out"/><feColorMatrix type="matrix" values="0 0 0 0 0 0 0 0 0 0 0 0 0 0 0 0 0 0 0.15 0"/><feBlend in2="BackgroundImageFix" mode="normal" result="effect1_dropShadow_165_3591"/><feBlend in="SourceGraphic" in2="effect1_dropShadow_165_3591" mode="normal" result="shape"/></filter></defs></svg>