<svg xmlns="http://www.w3.org/2000/svg" width="130" height="34" fill="none" viewBox="0 0 130 34"><path d="M54.84 25h-8.184V8.8h7.728c1.36 0 2.488.408 3.384 1.224.912.816 1.368 1.84 1.368 3.072 0 1.376-.576 2.496-1.728 3.36a4.339 4.339 0 0 1 1.8 1.632c.448.704.672 1.48.672 2.328 0 1.296-.48 2.392-1.44 3.288-.96.864-2.16 1.296-3.6 1.296Zm0-7.272h-5.784v5.04h5.784c.736 0 1.344-.24 1.824-.72.496-.48.744-1.08.744-1.8s-.248-1.32-.744-1.8c-.48-.48-1.088-.72-1.824-.72Zm-.456-6.696h-5.328v4.464h5.328c.656 0 1.2-.208 1.632-.624.432-.432.648-.968.648-1.608 0-.64-.216-1.168-.648-1.584-.432-.432-.976-.648-1.632-.648ZM64.442 25h-2.16V14.2h2.16V25Zm-1.08-15.696c.4 0 .735.136 1.008.408.27.272.407.608.407 1.008 0 .64-.296 1.08-.888 1.32-.592.24-1.111.144-1.56-.288-.431-.448-.528-.968-.288-1.56.24-.592.68-.888 1.32-.888ZM67.132 25V14.2h2.16v1.56c.816-1.232 1.992-1.848 3.528-1.848 1.248 0 2.28.408 3.096 1.224.816.784 1.224 1.792 1.224 3.024V25h-2.184v-6.216c0-.8-.264-1.464-.792-1.992S72.981 16 72.197 16c-.816 0-1.504.272-2.064.816-.56.528-.84 1.192-.84 1.992V25h-2.16Zm17.504-11.088c1.392 0 2.584.472 3.576 1.416V14.2h2.16V25h-2.16v-1.128c-.992.944-2.184 1.416-3.576 1.416-1.488 0-2.752-.544-3.792-1.632-1.008-1.072-1.512-2.424-1.512-4.056 0-1.616.504-2.968 1.512-4.056 1.04-1.088 2.304-1.632 3.792-1.632Zm2.568 3.192c-.624-.672-1.4-1.008-2.328-1.008-.912 0-1.696.336-2.352 1.008-.624.672-.936 1.504-.936 2.496s.312 1.824.936 2.496c.656.672 1.44 1.008 2.352 1.008.928 0 1.704-.336 2.328-1.008.64-.656.96-1.488.96-2.496s-.32-1.84-.96-2.496ZM93.055 25V14.2h2.16v1.56c.816-1.232 1.992-1.848 3.528-1.848 1.248 0 2.28.408 3.096 1.224.816.784 1.224 1.792 1.224 3.024V25h-2.184v-6.216c0-.8-.264-1.464-.792-1.992S98.903 16 98.12 16c-.816 0-1.504.272-2.064.816-.56.528-.84 1.192-.84 1.992V25h-2.16Zm23.096-7.68-2.184.672a3.164 3.164 0 0 0-1.224-1.368 3.286 3.286 0 0 0-1.824-.528c-.992 0-1.808.336-2.448 1.008-.64.656-.96 1.488-.96 2.496s.32 1.84.96 2.496c.643.672 1.46 1.008 2.451 1.008.673 0 1.281-.168 1.825-.504a3.318 3.318 0 0 0 1.224-1.392l2.183.648a5.406 5.406 0 0 1-2.064 2.52c-.928.608-1.984.912-3.168.912-1.615 0-2.967-.544-4.055-1.632-1.072-1.072-1.608-2.424-1.608-4.056 0-1.632.536-2.984 1.608-4.056 1.088-1.088 2.44-1.632 4.056-1.632 1.201 0 2.265.304 3.193.912a5.29 5.29 0 0 1 2.04 2.496Zm12.64 3.072h-8.929c.176.832.584 1.52 1.224 2.064.656.528 1.432.792 2.328.792 1.2 0 2.152-.448 2.856-1.344l2.112.648c-.48.832-1.168 1.496-2.064 1.992a5.813 5.813 0 0 1-2.904.744c-1.632 0-3.008-.544-4.128-1.632-1.104-1.088-1.656-2.44-1.656-4.056 0-1.632.536-2.984 1.608-4.056 1.088-1.088 2.424-1.632 4.008-1.632 1.568 0 2.896.544 3.984 1.632 1.072 1.072 1.608 2.424 1.608 4.056 0 .304-.016.568-.048.792Zm-8.905-1.728h6.72c-.192-.816-.6-1.472-1.224-1.968s-1.352-.744-2.184-.744c-.8 0-1.512.256-2.136.768-.608.496-1 1.144-1.176 1.944ZM15.746 17.2l1.053 1.054c.11.11.29.11.4 0l1.055-1.054c.11-.11.11-.29 0-.4L17.2 15.744a.283.283 0 0 0-.4 0L15.744 16.8c-.11.11-.11.29 0 .4Zm8.083 0 1.054 1.054c.11.11.29.11.4 0l1.055-1.054c.11-.11.11-.29 0-.4l-1.054-1.055a.283.283 0 0 0-.4 0L23.828 16.8c-.11.11-.11.29 0 .4Zm-16.167 0 1.054 1.054c.11.11.29.11.4 0L10.17 17.2c.11-.11.11-.29 0-.4l-1.054-1.055a.283.283 0 0 0-.4 0L7.66 16.8c-.11.11-.11.29 0 .4Zm9.738 6.028a.567.567 0 0 1-.8 0l-3.442-3.44a.283.283 0 0 0-.4 0l-1.055 1.054c-.11.11-.11.29 0 .4l5.096 5.096c.11.11.29.11.4 0l5.096-5.096c.11-.11.11-.29 0-.4l-1.054-1.054a.283.283 0 0 0-.4 0l-3.44 3.44Z" fill="#CDCFFF"/><path d="M29.018 4.981c-6.64-6.64-17.408-6.647-24.05.012-6.623 6.642-6.63 17.382.013 24.025 6.643 6.643 17.405 6.646 24.047-.01 6.627-6.643 6.633-17.383-.01-24.027ZM17 31.021c-7.732 0-14.022-6.29-14.022-14.021C2.978 9.268 9.268 2.978 17 2.978c7.416 0 13.52 5.766 13.992 13.108.522 8.225-6.003 14.936-13.992 14.936Z" fill="#CDCFFF"/><path d="M17 4.11C9.893 4.11 4.111 9.894 4.111 17s5.782 12.889 12.89 12.889a12.88 12.88 0 0 0 12.86-13.73C29.428 9.402 23.779 4.11 17.001 4.11Zm-6.698 8.447 6.297-6.297a.567.567 0 0 1 .802 0l6.297 6.297a.567.567 0 0 1 0 .802l-2.255 2.255a.567.567 0 0 1-.802 0l-3.44-3.44a.283.283 0 0 0-.398 0l-3.44 3.44a.567.567 0 0 1-.802 0l-2.256-2.255a.566.566 0 0 1 0-.805Zm9.355 4.843L17.4 19.656a.567.567 0 0 1-.802 0L14.345 17.4a.567.567 0 0 1 0-.8l2.255-2.257a.567.567 0 0 1 .802 0l2.256 2.256a.567.567 0 0 1 0 .8ZM8.516 19.656 6.26 17.4a.567.567 0 0 1 0-.8l2.256-2.257a.566.566 0 0 1 .801 0l2.256 2.256a.567.567 0 0 1 0 .8l-2.256 2.257a.567.567 0 0 1-.801 0Zm15.182 1.786-6.297 6.298a.567.567 0 0 1-.802 0l-6.297-6.298a.567.567 0 0 1 0-.801l2.256-2.256a.566.566 0 0 1 .8 0l3.442 3.44c.11.111.29.111.4 0l3.441-3.44a.567.567 0 0 1 .802 0l2.255 2.256a.567.567 0 0 1 0 .801ZM27.74 17.4l-2.256 2.256a.567.567 0 0 1-.8 0L22.426 17.4a.567.567 0 0 1 0-.8l2.256-2.257a.566.566 0 0 1 .801 0L27.74 16.6a.567.567 0 0 1 0 .801Z" fill="#CDCFFF"/><path d="M16.6 10.772a.567.567 0 0 1 .8 0l3.442 3.44c.11.111.29.111.4 0l1.054-1.053a.285.285 0 0 0 0-.401L17.2 7.662a.283.283 0 0 0-.4 0l-5.096 5.096c-.11.11-.11.29 0 .4l1.054 1.055c.11.11.29.11.4 0l3.441-3.441Z" fill="#CDCFFF"/></svg>