<svg xmlns="http://www.w3.org/2000/svg" width="116" height="34" fill="none" viewBox="0 0 116 34"><path d="M46.104 16.912c0-2.384.808-4.384 2.424-6 1.616-1.6 3.648-2.4 6.096-2.4 1.632 0 3.104.384 4.416 1.152a7.908 7.908 0 0 1 3.072 3.168l-2.328.888a5.483 5.483 0 0 0-2.136-2.136c-.912-.512-1.92-.768-3.024-.768-1.712 0-3.152.584-4.32 1.752-1.152 1.152-1.728 2.6-1.728 4.344 0 1.712.552 3.16 1.656 4.344 1.136 1.152 2.512 1.728 4.128 1.728 1.392 0 2.608-.416 3.648-1.248 1.056-.848 1.728-1.92 2.016-3.216H54v-2.232h8.712c.032.416.048.656.048.72-.016 2.336-.824 4.304-2.424 5.904-1.584 1.584-3.552 2.376-5.904 2.376-2.368 0-4.352-.8-5.952-2.4-1.584-1.6-2.376-3.592-2.376-5.976Zm23.79-3c1.393 0 2.585.472 3.577 1.416V14.2h2.16V25h-2.16v-1.128c-.992.944-2.184 1.416-3.576 1.416-1.488 0-2.752-.544-3.792-1.632-1.008-1.072-1.512-2.424-1.512-4.056 0-1.616.504-2.968 1.512-4.056 1.04-1.088 2.304-1.632 3.792-1.632Zm2.569 3.192c-.624-.672-1.4-1.008-2.328-1.008-.912 0-1.696.336-2.352 1.008-.624.672-.936 1.504-.936 2.496s.312 1.824.936 2.496c.656.672 1.44 1.008 2.352 1.008.928 0 1.704-.336 2.328-1.008.64-.656.96-1.488.96-2.496s-.32-1.84-.96-2.496Zm4.794-.984V14.2h1.632v-2.16h2.182v2.16H84v1.92h-2.927v5.304c0 .416.136.768.408 1.056.272.288.608.432 1.008.432h1.51V25h-1.656c-.976 0-1.8-.312-2.472-.936a3.237 3.237 0 0 1-.984-2.376V16.12h-1.633Zm19.4 4.272H87.73c.176.832.584 1.52 1.224 2.064.656.528 1.432.792 2.328.792 1.2 0 2.152-.448 2.856-1.344l2.112.648c-.48.832-1.168 1.496-2.064 1.992a5.813 5.813 0 0 1-2.904.744c-1.632 0-3.008-.544-4.128-1.632-1.104-1.088-1.656-2.44-1.656-4.056 0-1.632.536-2.984 1.608-4.056 1.088-1.088 2.424-1.632 4.008-1.632 1.568 0 2.896.544 3.984 1.632 1.072 1.072 1.608 2.424 1.608 4.056 0 .304-.016.568-.048.792Zm-8.904-1.728h6.72c-.192-.816-.6-1.472-1.224-1.968s-1.352-.744-2.184-.744c-.8 0-1.512.256-2.136.768-.608.496-1 1.144-1.176 1.944ZM100.91 25h-2.16V14.2h2.16V25ZM99.83 9.304c.4 0 .736.136 1.008.408.272.272.408.608.408 1.008 0 .64-.296 1.08-.888 1.32-.592.24-1.112.144-1.56-.288-.432-.448-.528-.968-.288-1.56.24-.592.68-.888 1.32-.888Zm4.9 14.352c-1.072-1.072-1.608-2.424-1.608-4.056 0-1.632.536-2.984 1.608-4.056 1.088-1.088 2.44-1.632 4.056-1.632s2.968.544 4.056 1.632c1.088 1.088 1.632 2.44 1.632 4.056s-.544 2.968-1.632 4.056c-1.088 1.088-2.44 1.632-4.056 1.632s-2.968-.544-4.056-1.632Zm1.608-6.552c-.64.656-.96 1.488-.96 2.496s.32 1.84.96 2.496c.64.672 1.456 1.008 2.448 1.008.96 0 1.768-.336 2.424-1.008.656-.688.984-1.52.984-2.496s-.328-1.808-.984-2.496c-.656-.672-1.464-1.008-2.424-1.008-.992 0-1.808.336-2.448 1.008Zm-93.017-.372-.293-.296a.355.355 0 0 0-.605.25v4.233c0 .196.16.355.356.355h4.234a.354.354 0 0 0 .25-.605.354.354 0 0 1 0-.5l4.504-4.518a.353.353 0 0 0 0-.5l-.41-.409a.355.355 0 0 1 .25-.605h4.232c.195 0 .356.159.356.354v4.233a.356.356 0 0 1-.608.25l-.285-.285a.346.346 0 0 0-.5 0l-7.592 7.59a.355.355 0 0 1-.502 0l-9.29-9.29a.354.354 0 0 1 0-.502l12.86-12.858a.356.356 0 0 0 0-.502L17.254.103a.356.356 0 0 0-.502 0L.103 16.75a.356.356 0 0 0 0 .502L16.75 33.897a.357.357 0 0 0 .502 0l16.645-16.645a.356.356 0 0 0 0-.5l-9.793-9.793a.355.355 0 0 0-.501 0l-9.778 9.773a.355.355 0 0 1-.504 0Z" fill="#CDCFFF"/></svg>