<svg xmlns="http://www.w3.org/2000/svg" fill="none" viewBox="0 0 339 218"><g opacity=".32"><path d="M316.494 196.275h.508V54.625h-.508v141.65Z" fill="#A7A9D4"/><path d="M316.73 52.572c-1.058 0-1.916.98-1.916 2.187 0 1.208.858 2.187 1.916 2.187 1.058 0 1.916-.979 1.916-2.187 0-1.207-.858-2.187-1.916-2.187Z" fill="#fff"/><path d="M318.918 54.76c0 1.383-.978 2.454-2.151 2.454-1.212 0-2.151-1.116-2.151-2.454 0-1.384.978-2.455 2.151-2.455 1.173 0 2.151 1.116 2.151 2.455 0 1.383 0-1.34 0 0Zm-3.833 0c0 1.026.743 1.874 1.643 1.874.899 0 1.642-.848 1.642-1.874 0-1.027-.743-1.875-1.642-1.875-.9 0-1.643.848-1.643 1.875 0 1.07 0-1.027 0 0Z" fill="#A7A9D4"/></g><path d="M287.898 200.084h.555V1.377h-.555v198.707Z" fill="#A7A9D4"/><path d="M288.177.267c-1.058 0-1.916.98-1.916 2.187 0 1.208.858 2.187 1.916 2.187 1.059 0 1.917-.98 1.917-2.187 0-1.208-.858-2.187-1.917-2.187Z" fill="#fff"/><path d="M290.369 2.455c0 1.383-.978 2.454-2.151 2.454-1.212 0-2.151-1.116-2.151-2.454 0-1.384.978-2.455 2.151-2.455 1.173 0 2.151 1.116 2.151 2.455 0 1.383 0-1.34 0 0Zm-3.833 0c0 1.026.743 1.874 1.643 1.874s1.643-.848 1.643-1.874c0-1.027-.743-1.875-1.643-1.875s-1.643.848-1.643 1.875c0 1.07 0-1.027 0 0Z" fill="#A7A9D4"/><g opacity=".32"><path d="M259.394 205.163h.508V63.514h-.508v141.649Z" fill="#A7A9D4"/><path d="M261.547 63.648c0-1.205-.861-2.187-1.917-2.187-1.055 0-1.916.982-1.916 2.187 0 1.205.861 2.187 1.916 2.187 1.056 0 1.917-.982 1.917-2.187Z" fill="#fff"/><path d="M261.779 63.648c0 1.383-.977 2.455-2.151 2.455-1.212 0-2.151-1.116-2.151-2.455 0-1.384.978-2.455 2.151-2.455 1.213 0 2.151 1.116 2.151 2.455 0 1.383 0-1.339 0 0Zm-3.793 0c0 1.026.743 1.874 1.642 1.874.9 0 1.643-.848 1.643-1.874 0-1.026-.743-1.874-1.643-1.874-.899 0-1.642.848-1.642 1.874 0 1.071 0-1.026 0 0Z" fill="#A7A9D4"/></g><g opacity=".32"><path d="M230.8 210.242h.509V68.592h-.509v141.65Z" fill="#A7A9D4"/><path d="M231.076 66.54c-1.059 0-1.917.979-1.917 2.187 0 1.207.858 2.186 1.917 2.186 1.058 0 1.916-.979 1.916-2.186 0-1.208-.858-2.187-1.916-2.187Z" fill="#fff"/><path d="M233.225 68.727c0 1.383-.978 2.454-2.151 2.454-1.213 0-2.152-1.115-2.152-2.454 0-1.384.978-2.455 2.152-2.455 1.173 0 2.151 1.116 2.151 2.455 0 1.383 0-1.34 0 0Zm-3.833 0c0 1.026.743 1.874 1.642 1.874.9 0 1.643-.848 1.643-1.874 0-1.027-.743-1.875-1.643-1.875-.899 0-1.642.848-1.642 1.875 0 1.07 0-1.027 0 0Z" fill="#A7A9D4"/></g><g opacity=".32"><path d="M202.253 213.416h.509V71.767h-.509v141.649Z" fill="#A7A9D4"/><path d="M202.525 69.715c-1.058 0-1.916.98-1.916 2.187 0 1.208.858 2.187 1.916 2.187 1.058 0 1.916-.98 1.916-2.187 0-1.208-.858-2.187-1.916-2.187Z" fill="#fff"/><path d="M204.678 71.901c0 1.384-.978 2.455-2.151 2.455-1.213 0-2.151-1.116-2.151-2.455 0-1.383.977-2.454 2.151-2.454 1.173 0 2.151 1.115 2.151 2.454 0 1.384 0-1.339 0 0Zm-3.833 0c0 1.027.743 1.875 1.643 1.875.899 0 1.642-.848 1.642-1.875 0-1.026-.743-1.874-1.642-1.874-.9 0-1.643.848-1.643 1.874 0 1.071 0-1.026 0 0Z" fill="#A7A9D4"/></g><path d="M173.07 217.479h.555V44.047h-.555v173.432Z" fill="#A7A9D4"/><path d="M172.734 42.938c-1.058 0-1.916.979-1.916 2.187 0 1.208.858 2.187 1.916 2.187 1.058 0 1.916-.98 1.916-2.187 0-1.208-.858-2.187-1.916-2.187Z" fill="#fff"/><path d="M174.922 45.125c0 1.383-.978 2.454-2.151 2.454-1.213 0-2.151-1.116-2.151-2.454 0-1.384.978-2.455 2.151-2.455 1.173 0 2.151 1.116 2.151 2.455 0 1.383 0-1.34 0 0Zm-3.833 0c0 1.026.743 1.874 1.643 1.874.899 0 1.642-.848 1.642-1.874 0-1.027-.743-1.875-1.642-1.875-.9 0-1.643.848-1.643 1.875 0 1.07 0-1.027 0 0Z" fill="#A7A9D4"/><g opacity=".32"><path d="M145.246 218h.557V80.239h-.557V218Z" fill="#A7A9D4"/><path d="M145.382 77.967c-1.058 0-1.916.98-1.916 2.187 0 1.208.858 2.187 1.916 2.187 1.059 0 1.917-.98 1.917-2.187 0-1.208-.858-2.187-1.917-2.187Z" fill="#fff"/><path d="M147.574 80.154c0 1.383-.978 2.454-2.151 2.454-1.212 0-2.151-1.115-2.151-2.454 0-1.384.978-2.455 2.151-2.455 1.173 0 2.151 1.116 2.151 2.455 0 1.383 0-1.339 0 0Zm-3.833 0c0 1.026.744 1.874 1.643 1.874.9 0 1.643-.848 1.643-1.874 0-1.027-.743-1.874-1.643-1.874-.899 0-1.643.847-1.643 1.874 0 1.07 0-1.027 0 0Z" fill="#A7A9D4"/></g><g opacity=".32"><path d="M116.299 218h.556V85.317h-.556V218Z" fill="#A7A9D4"/><path d="M116.838 83.045c-1.059 0-1.917.98-1.917 2.187 0 1.208.858 2.187 1.917 2.187 1.058 0 1.916-.98 1.916-2.187 0-1.207-.858-2.187-1.916-2.187Z" fill="#fff"/><path d="M118.99 85.233c0 1.383-.978 2.454-2.151 2.454-1.212 0-2.151-1.116-2.151-2.454 0-1.384.978-2.455 2.151-2.455 1.173 0 2.151 1.116 2.151 2.454 0 1.384 0-1.338 0 0Zm-3.793 0c0 1.026.743 1.874 1.642 1.874.9 0 1.643-.848 1.643-1.874 0-1.027-.743-1.875-1.643-1.875-.899 0-1.642.848-1.642 1.874 0 1.072 0-1.026 0 0Z" fill="#A7A9D4"/></g><g opacity=".32"><path d="M87.904 218h.557V94.84h-.557V218Z" fill="#A7A9D4"/><path d="M88.287 92.65c-1.059 0-1.917.979-1.917 2.187 0 1.207.858 2.186 1.917 2.186 1.058 0 1.916-.979 1.916-2.186 0-1.208-.858-2.187-1.916-2.187Z" fill="#fff"/><path d="M90.436 94.836c0 1.384-.978 2.455-2.152 2.455-1.212 0-2.15-1.116-2.15-2.455 0-1.383.977-2.454 2.15-2.454 1.174 0 2.151 1.115 2.151 2.454 0 1.384 0-1.339 0 0Zm-3.833 0c0 1.027.743 1.875 1.642 1.875.9 0 1.643-.848 1.643-1.875 0-1.026-.743-1.874-1.643-1.874s-1.642.848-1.642 1.874c0 1.071 0-1.026 0 0Z" fill="#A7A9D4"/></g><path d="M59.508 218h.556V92.222h-.556V218Z" fill="#A7A9D4"/><path d="M61.613 92.733c0-1.205-.86-2.187-1.916-2.187s-1.916.982-1.916 2.187c0 1.205.86 2.187 1.916 2.187 1.095 0 1.916-.982 1.916-2.187Z" fill="#fff"/><path d="M61.887 92.733c0 1.383-.978 2.454-2.151 2.454-1.213 0-2.151-1.116-2.151-2.454 0-1.384.977-2.455 2.15-2.455 1.174 0 2.152 1.116 2.152 2.454 0 1.384 0-1.338 0 0Zm-3.833 0c0 1.026.743 1.874 1.643 1.874s1.642-.848 1.642-1.874c0-1.027-.743-1.875-1.642-1.875-.9 0-1.643.848-1.643 1.874 0 1.072 0-1.026 0 0Z" fill="#A7A9D4"/><g opacity=".32"><path d="M30.912 218h.508v-98.62h-.509V218Z" fill="#A7A9D4"/><path d="M33.063 119.515c0-1.205-.86-2.187-1.917-2.187-1.056 0-1.916.982-1.916 2.187 0 1.205.86 2.186 1.916 2.186s1.916-.981 1.916-2.186Z" fill="#fff"/><path d="M33.336 119.514c0 1.384-.978 2.455-2.151 2.455-1.212 0-2.151-1.116-2.151-2.455 0-1.383.978-2.454 2.15-2.454 1.174 0 2.152 1.116 2.152 2.454 0 1.384 0-1.338 0 0Zm-3.833 0c0 1.027.743 1.875 1.643 1.875s1.642-.848 1.642-1.875c0-1.026-.743-1.874-1.642-1.874-.9 0-1.643.848-1.643 1.874 0 1.072 0-1.026 0 0Z" fill="#A7A9D4"/></g><g opacity=".32"><path d="M2.915 204.033h.509v-72.591h-.509v72.591Z" fill="#A7A9D4"/><path d="M3.148 129.389c-1.058 0-1.916.979-1.916 2.187 0 1.208.858 2.187 1.916 2.187 1.058 0 1.916-.979 1.916-2.187 0-1.208-.858-2.187-1.916-2.187Z" fill="#fff"/><path d="M5.3 131.576c0 1.383-.977 2.454-2.15 2.454-1.213 0-2.151-1.115-2.151-2.454 0-1.384.977-2.455 2.15-2.455 1.213 0 2.152 1.116 2.152 2.455 0 1.383 0-1.339 0 0Zm-3.793 0c0 1.026.743 1.874 1.643 1.874s1.642-.848 1.642-1.874c0-1.027-.743-1.875-1.642-1.875-.9 0-1.643.848-1.643 1.875 0 1.071 0-1.027 0 0Z" fill="#A7A9D4"/></g><path d="M2.716 204.315v-46.158c48.129-16.777 72.704 16.932 107.561 2.912 22.716-9.149 18.158-31.313 58.083-31.313 39.926 0 38.504 49.276 74.054 49.276 35.586 0 30.481-34.895 62.458-34.895 13.928 0 25.487 4.768 34.128 10.154v50.024c0 7.551-8.678 13.685-19.361 13.685H22.077c-10.683 0-19.361-6.134-19.361-13.685Z" fill="url(#a)"/><path d="M168.337 129.122c21.256 0 31.063 13.255 40.506 26.074 8.75 11.843 16.99 23.043 33.542 23.043 17.573 0 24.974-8.991 32.12-17.674 6.927-8.4 14.073-17.109 30.297-17.109 11.885 0 23.37 3.34 34.198 9.891l-1.531 1.258c-10.391-6.294-21.365-9.505-32.667-9.505-14.875 0-21.365 7.913-28.256 16.287-7.474 9.094-15.239 18.522-34.198 18.522-18.01 0-26.979-12.177-35.656-23.942-9.115-12.382-18.558-25.176-38.391-25.176-24.209 0-31.5 8.195-39.157 16.853-4.666 5.266-9.515 10.712-18.338 14.257-16.88 6.782-31.428 2.697-46.85-1.593-17.573-4.906-35.693-9.967-60.74-1.284l-1.057-1.49c25.995-9.017 45.464-3.597 62.672 1.207 15.532 4.342 28.912 8.092 44.808 1.696 8.313-3.34 12.979-8.606 17.5-13.693 7.693-8.657 15.677-17.622 41.198-17.622Z" fill="url(#b)"/><defs><linearGradient id="a" x1="24.827" x2="311.569" y1="173.881" y2="173.881" gradientUnits="userSpaceOnUse"><stop stop-color="#2E286F"/><stop offset="1" stop-color="#34179B"/></linearGradient><linearGradient id="b" x1="-58.01" x2="367.545" y1="142.441" y2="158.278" gradientUnits="userSpaceOnUse"><stop stop-color="#548EF7"/><stop offset=".228" stop-color="#6F1E8F"/><stop offset=".909" stop-color="#5482F7"/></linearGradient></defs></svg>