<svg xmlns="http://www.w3.org/2000/svg" fill="none" viewBox="0 0 608 262"><path d="M567.571 227.395h.913V4.271h-.913v223.124Z" fill="#A7A9D4"/><path d="M567.994 1.037a3.444 3.444 0 0 0 0 6.89 3.444 3.444 0 0 0 0-6.89Z" fill="#fff"/><path d="M571.927 4.482a3.854 3.854 0 0 1-3.864 3.866 3.854 3.854 0 0 1-3.863-3.866 3.853 3.853 0 0 1 3.863-3.866c2.108 0 3.864 1.757 3.864 3.866 0 2.18 0-2.109 0 0Zm-6.884 0a2.969 2.969 0 0 0 2.95 2.953 2.969 2.969 0 0 0 2.95-2.953 2.969 2.969 0 0 0-2.95-2.952 2.969 2.969 0 0 0-2.95 2.952c0 1.687 0-1.617 0 0Zm-48.751 228.913h.913V10.271h-.913v223.124Z" fill="#A7A9D4"/><path d="M516.714 7.037a3.443 3.443 0 0 0-3.442 3.445 3.443 3.443 0 0 0 3.442 3.445 3.443 3.443 0 0 0 3.442-3.445 3.443 3.443 0 0 0-3.442-3.445Z" fill="#fff"/><path d="M520.647 10.482a3.854 3.854 0 0 1-3.863 3.866 3.854 3.854 0 0 1-3.864-3.866 3.854 3.854 0 0 1 3.864-3.866c2.107 0 3.863 1.757 3.863 3.866 0 2.18 0-2.109 0 0Zm-6.884 0a2.97 2.97 0 0 0 2.951 2.953 2.97 2.97 0 0 0 2.95-2.953 2.97 2.97 0 0 0-2.95-2.952 2.97 2.97 0 0 0-2.951 2.952c0 1.687 0-1.617 0 0Zm-48.75 230.913h.913V18.271h-.913v223.124Z" fill="#A7A9D4"/><path d="M468.876 18.482a3.449 3.449 0 0 0-3.442-3.445 3.449 3.449 0 0 0-3.442 3.445 3.449 3.449 0 0 0 3.442 3.445 3.449 3.449 0 0 0 3.442-3.445Z" fill="#fff"/><path d="M469.298 18.482a3.854 3.854 0 0 1-3.864 3.866 3.854 3.854 0 0 1-3.863-3.866 3.853 3.853 0 0 1 3.863-3.866 3.854 3.854 0 0 1 3.864 3.866c0 2.18 0-2.109 0 0Zm-6.814 0a2.97 2.97 0 0 0 2.95 2.953 2.97 2.97 0 0 0 2.951-2.953 2.97 2.97 0 0 0-2.951-2.952 2.97 2.97 0 0 0-2.95 2.952c0 1.687 0-1.617 0 0Zm-48.821 230.913h.913V26.271h-.913v223.124Z" fill="#A7A9D4"/><path d="M414.155 23.037a3.443 3.443 0 0 0-3.442 3.445 3.443 3.443 0 0 0 3.442 3.445 3.443 3.443 0 0 0 3.442-3.445 3.443 3.443 0 0 0-3.442-3.445Z" fill="#fff"/><path d="M418.019 26.482a3.854 3.854 0 0 1-3.864 3.866 3.853 3.853 0 0 1-3.863-3.866 3.853 3.853 0 0 1 3.863-3.866c2.107 0 3.864 1.757 3.864 3.866 0 2.18 0-2.109 0 0Zm-6.885 0a2.97 2.97 0 0 0 2.951 2.953 2.97 2.97 0 0 0 2.95-2.953 2.97 2.97 0 0 0-2.95-2.953 2.97 2.97 0 0 0-2.951 2.953c0 1.687 0-1.617 0 0Zm-48.75 227.913h.913V31.271h-.913v223.124Z" fill="#A7A9D4"/><path d="M362.875 28.037a3.443 3.443 0 0 0-3.442 3.445 3.443 3.443 0 0 0 3.442 3.444 3.443 3.443 0 0 0 3.442-3.444 3.443 3.443 0 0 0-3.442-3.445Z" fill="#fff"/><path d="M366.739 31.482a3.854 3.854 0 0 1-3.863 3.866 3.854 3.854 0 0 1-3.864-3.866 3.854 3.854 0 0 1 3.864-3.866c2.107 0 3.863 1.757 3.863 3.866 0 2.18 0-2.109 0 0Zm-6.884 0a2.97 2.97 0 0 0 2.95 2.953 2.97 2.97 0 0 0 2.951-2.953 2.97 2.97 0 0 0-2.951-2.953 2.97 2.97 0 0 0-2.95 2.953c0 1.687 0-1.617 0 0Zm-48.751 229.913h.914V38.271h-.914v223.124Z" fill="#A7A9D4"/><path d="M311.527 35.037a3.443 3.443 0 0 0-3.442 3.445 3.443 3.443 0 0 0 3.442 3.444 3.443 3.443 0 0 0 3.442-3.444 3.443 3.443 0 0 0-3.442-3.445Z" fill="#fff"/><path d="M315.46 38.482a3.854 3.854 0 0 1-3.864 3.866 3.854 3.854 0 0 1-3.863-3.866 3.853 3.853 0 0 1 3.863-3.866c2.108 0 3.864 1.757 3.864 3.866 0 2.18 0-2.109 0 0Zm-6.884 0a2.97 2.97 0 0 0 2.95 2.953 2.97 2.97 0 0 0 2.951-2.953 2.97 2.97 0 0 0-2.951-2.953 2.97 2.97 0 0 0-2.95 2.953c0 1.687 0-1.617 0 0ZM260 261.616h1v-217h-1v217Z" fill="#A7A9D4"/><path d="M260.247 41.037a3.443 3.443 0 0 0-3.442 3.445 3.443 3.443 0 0 0 3.442 3.444 3.443 3.443 0 0 0 3.442-3.444 3.443 3.443 0 0 0-3.442-3.445Z" fill="#fff"/><path d="M264.181 44.482a3.854 3.854 0 0 1-3.864 3.866 3.854 3.854 0 0 1-3.863-3.866 3.853 3.853 0 0 1 3.863-3.866c2.108 0 3.864 1.757 3.864 3.866 0 2.18 0-2.109 0 0Zm-6.884 0a2.969 2.969 0 0 0 2.95 2.953 2.969 2.969 0 0 0 2.95-2.953 2.969 2.969 0 0 0-2.95-2.953 2.969 2.969 0 0 0-2.95 2.953c0 1.687 0-1.617 0 0ZM208 261.616h1v-209h-1v209Z" fill="#A7A9D4"/><path d="M208.967 49.037a3.443 3.443 0 0 0-3.442 3.445 3.443 3.443 0 0 0 3.442 3.444 3.443 3.443 0 0 0 3.442-3.444 3.443 3.443 0 0 0-3.442-3.445Z" fill="#fff"/><path d="M212.831 52.482a3.853 3.853 0 0 1-3.863 3.866 3.854 3.854 0 0 1-3.864-3.866 3.854 3.854 0 0 1 3.864-3.866c2.107 0 3.863 1.757 3.863 3.866 0 2.18 0-2.109 0 0Zm-6.814 0a2.97 2.97 0 0 0 2.951 2.953 2.97 2.97 0 0 0 2.95-2.953 2.97 2.97 0 0 0-2.95-2.953 2.97 2.97 0 0 0-2.951 2.953c0 1.687 0-1.617 0 0ZM157 261.616h1v-194h-1v194Z" fill="#A7A9D4"/><path d="M157.688 64.165a3.443 3.443 0 0 0-3.442 3.444 3.443 3.443 0 0 0 3.442 3.445 3.443 3.443 0 0 0 3.442-3.445 3.443 3.443 0 0 0-3.442-3.444Z" fill="#fff"/><path d="M161.552 67.61a3.854 3.854 0 0 1-3.864 3.866 3.854 3.854 0 0 1-3.863-3.867 3.853 3.853 0 0 1 3.863-3.866c2.108 0 3.864 1.757 3.864 3.866 0 2.18 0-2.109 0 0Zm-6.884 0a2.969 2.969 0 0 0 2.95 2.952 2.969 2.969 0 0 0 2.95-2.953 2.969 2.969 0 0 0-2.95-2.952 2.969 2.969 0 0 0-2.95 2.952c0 1.687 0-1.617 0 0Zm-48.669 194.006h1v-169h-1v169Z" fill="#A7A9D4"/><path d="M109.779 92.482a3.449 3.449 0 0 0-3.442-3.445 3.45 3.45 0 0 0-3.442 3.445 3.45 3.45 0 0 0 3.442 3.445c1.967 0 3.442-1.547 3.442-3.445Z" fill="#fff"/><path d="M110.271 92.482a3.854 3.854 0 0 1-3.863 3.866 3.853 3.853 0 0 1-3.863-3.866 3.854 3.854 0 0 1 3.863-3.866c2.107 0 3.863 1.757 3.863 3.866 0 2.18 0-2.109 0 0Zm-6.884 0a2.97 2.97 0 0 0 2.951 2.953 2.97 2.97 0 0 0 2.95-2.953 2.97 2.97 0 0 0-2.95-2.953 2.97 2.97 0 0 0-2.951 2.953c0 1.687 0-1.617 0 0Zm-48.75 169.134h.914V106.271h-.913v155.345Z" fill="#A7A9D4"/><path d="M58.5 106.482a3.45 3.45 0 0 0-3.442-3.445 3.45 3.45 0 0 0-3.442 3.445 3.45 3.45 0 0 0 3.442 3.445 3.45 3.45 0 0 0 3.442-3.445Z" fill="#fff"/><path d="M58.992 106.482a3.854 3.854 0 0 1-3.863 3.866 3.853 3.853 0 0 1-3.864-3.866 3.854 3.854 0 0 1 3.864-3.866c2.107 0 3.863 1.757 3.863 3.866 0 2.179 0-2.109 0 0Zm-6.884 0a2.97 2.97 0 0 0 2.95 2.953 2.97 2.97 0 0 0 2.95-2.953 2.969 2.969 0 0 0-2.95-2.952 2.969 2.969 0 0 0-2.95 2.952c0 1.687 0-1.617 0 0ZM4.36 239.616h.913V125.271H4.36v114.345Z" fill="#A7A9D4"/><path d="M4.78 122.037a3.443 3.443 0 0 0-3.442 3.445 3.443 3.443 0 1 0 6.884 0 3.443 3.443 0 0 0-3.442-3.445Z" fill="#fff"/><path d="M8.644 125.482a3.854 3.854 0 0 1-3.864 3.866 3.853 3.853 0 0 1-3.864-3.866 3.854 3.854 0 0 1 3.864-3.867 3.854 3.854 0 0 1 3.864 3.867c0 2.179 0-2.109 0 0Zm-6.814 0a2.969 2.969 0 0 0 2.95 2.952 2.969 2.969 0 0 0 2.95-2.952 2.97 2.97 0 0 0-2.95-2.953 2.97 2.97 0 0 0-2.95 2.953c0 1.687 0-1.617 0 0Z" fill="#A7A9D4"/><path d="M4 240.059v-72.707c86.445-26.428 130.584 26.672 193.191 4.588 40.799-14.412 32.613-49.324 104.323-49.324s69.156 77.619 133.007 77.619c63.917 0 54.748-54.967 112.182-54.967 25.016 0 45.776 7.51 61.297 15.995v78.796c0 11.895-15.586 21.557-34.774 21.557H38.774C19.586 261.616 4 251.954 4 240.059Z" fill="url(#a)"/><path d="M301.473 121.616c38.177 0 55.792 20.88 72.752 41.072 15.716 18.655 30.515 36.298 60.244 36.298 31.563 0 44.856-14.163 57.691-27.84 12.442-13.233 25.277-26.95 54.417-26.95 21.347 0 41.974 5.26 61.423 15.579l-2.75 1.983c-18.663-9.914-38.373-14.973-58.673-14.973-26.717 0-38.374 12.464-50.75 25.655-13.424 14.325-27.372 29.176-61.423 29.176-32.349 0-48.458-19.181-64.043-37.714-16.371-19.504-33.331-39.656-68.954-39.656-43.481 0-56.577 12.909-70.329 26.545-8.382 8.296-17.091 16.875-32.938 22.459-30.319 10.683-56.446 4.249-84.146-2.509-31.563-7.729-64.108-15.701-109.095-2.023L3 166.371c46.69-14.204 81.658-5.666 112.566 1.902 27.896 6.838 51.928 12.746 80.479 2.67 14.93-5.26 23.312-13.556 31.432-21.568 13.817-13.637 28.158-27.759 73.996-27.759Z" fill="url(#b)"/><defs><linearGradient id="a" x1="43.715" x2="558.731" y1="192.12" y2="192.12" gradientUnits="userSpaceOnUse"><stop stop-color="#2E286F"/><stop offset="1" stop-color="#34179B"/></linearGradient><linearGradient id="b" x1="-105.07" x2="658.952" y1="142.596" y2="175.018" gradientUnits="userSpaceOnUse"><stop stop-color="#548EF7"/><stop offset=".228" stop-color="#6F1E8F"/><stop offset=".909" stop-color="#5482F7"/></linearGradient></defs></svg>