<svg xmlns="http://www.w3.org/2000/svg" preserveAspectRatio="none" viewBox="0 0 1920 1002" fill="none">
<path d="M3746.97 87.6117C3746.97 87.6117 4052.31 82.2776 4395.45 10.9322L4529.7 0.971546L4568.69 526.529L1920.96 890.175C1920.96 890.175 306.041 1162.98 -229.655 853.199C-327.697 796.504 -502.71 523.08 -368.265 379.18C-233.82 235.279 71.728 243.798 387.939 263.206C771.077 286.722 802.428 310.595 1093.4 290.951C1459.75 266.219 1760 137.582 2031.52 96.1652C2279.56 58.3308 2378.27 160.598 2615.65 125.663C2853.04 90.729 3116.27 77.58 3224.94 80.4572C3333.61 83.3345 3746.97 87.6117 3746.97 87.6117Z" fill="url(#paint0_linear_82_20793)"/>
<defs>
<linearGradient id="paint0_linear_82_20793" x1="2046.64" y1="92.7246" x2="2269.57" y2="1470.95" gradientUnits="userSpaceOnUse">
<stop stop-color="#040114"/>
<stop offset="0.123946" stop-color="#080435"/>
<stop offset="0.453633" stop-color="#130F3D"/>
<stop offset="1" stop-opacity="0"/>
</linearGradient>
</defs>
</svg>
