<svg width="54" height="52" viewBox="0 0 54 52" fill="none" xmlns="http://www.w3.org/2000/svg">
<path d="M28.5841 33.6473H25.5052V36.7062H28.5841C29.4319 36.7062 30.1235 36.0208 30.1235 35.1769C30.1236 34.3328 29.4321 33.6473 28.5841 33.6473ZM28.5841 39.7649H25.5052V42.8238H28.5841C29.4319 42.8238 30.1235 42.1383 30.1235 41.2944C30.1235 40.4506 29.4321 39.7649 28.5841 39.7649ZM27.0448 24.4709C19.3931 24.4709 13.1901 30.6336 13.1901 38.2356C13.1901 45.8376 19.3931 52.0002 27.0448 52.0002C34.6964 52.0002 40.8994 45.8376 40.8994 38.2356C40.8994 30.6334 34.6964 24.4709 27.0448 24.4709V24.4709ZM33.2023 41.2943C33.2023 43.8244 31.1307 45.8825 28.5841 45.8825V47.4118C28.5841 48.2571 27.8955 48.9412 27.0448 48.9412C26.194 48.9412 25.5054 48.2571 25.5054 47.4118V45.8825C25.2253 45.8825 22.6855 45.8825 22.4265 45.8825C21.5756 45.8825 20.8872 45.1984 20.8872 44.353C20.8872 43.5077 21.5758 42.8236 22.4265 42.8236V33.6472C21.5756 33.6472 20.8872 32.9631 20.8872 32.1178C20.8872 31.2726 21.5758 30.5885 22.4265 30.5885H25.5054V29.0591C25.5054 28.2137 26.194 27.5298 27.0448 27.5298C27.8955 27.5298 28.5841 28.2139 28.5841 29.0591V30.5885C31.1307 30.5885 33.2023 32.6466 33.2023 35.1767C33.2023 36.3507 32.7574 37.423 32.0238 38.2356C32.7574 39.0481 33.2023 40.1205 33.2023 41.2943ZM47.0389 12.7568C47.4953 6.24197 42.0029 0.000244141 34.7418 0.000244141C30.5928 0.000244141 26.7742 2.07336 24.5193 5.4234C22.6191 3.903 20.2648 3.05912 17.8085 3.05912C12.2132 3.05912 7.5979 7.32036 7.08074 12.748C3.41868 14.013 0.875 17.4796 0.875 21.4122C0.875 26.4724 5.01817 30.5886 10.1114 30.5886H11.9809C14.79 25.1497 20.4815 21.412 27.0448 21.412C33.608 21.412 39.2996 25.1496 42.1086 30.5885H43.9781C49.0713 30.5885 53.2145 26.4722 53.2145 21.412C53.2147 17.4869 50.689 14.0442 47.0389 12.7568V12.7568Z" fill="#5994F8"/>
</svg>
