<svg width="66" height="67" viewBox="0 0 66 67" fill="none" xmlns="http://www.w3.org/2000/svg">
<g filter="url(#filter0_d_170_6371)">
<path d="M65.986 20.4472C65.986 11.77 58.9521 4.73613 50.275 4.73612C41.5978 4.73612 34.564 11.77 34.564 20.4472C34.564 29.1244 41.5978 36.1581 50.275 36.1581C52.6063 36.1581 54.8399 38.1103 54.2078 40.3542C49.3363 57.6475 37.2739 67.7297 50.6733 57.8915C66.9273 45.9571 66.0034 20.9273 65.9852 20.4686C65.9852 20.4615 65.986 20.4551 65.986 20.4472Z" fill="url(#paint0_linear_170_6371)"/>
<path d="M31.4215 20.4472C31.4215 11.77 24.3876 4.73612 15.7104 4.73612C7.03323 4.73612 -0.000619333 11.77 -0.000620092 20.4472C-0.00062085 29.1244 7.03336 36.1581 15.7106 36.1581C18.0418 36.1581 20.2754 38.1103 19.6433 40.3542C14.7718 57.6475 2.70941 67.7297 16.1089 57.8915C32.3628 45.9571 31.439 20.9273 31.4207 20.4686C31.4207 20.4615 31.4215 20.4551 31.4215 20.4472Z" fill="url(#paint1_linear_170_6371)"/>
</g>
<defs>
<filter id="filter0_d_170_6371" x="-19.001" y="-5.26392" width="104.001" height="95.0179" filterUnits="userSpaceOnUse" color-interpolation-filters="sRGB">
<feFlood flood-opacity="0" result="BackgroundImageFix"/>
<feColorMatrix in="SourceAlpha" type="matrix" values="0 0 0 0 0 0 0 0 0 0 0 0 0 0 0 0 0 0 127 0" result="hardAlpha"/>
<feOffset dy="9"/>
<feGaussianBlur stdDeviation="9.5"/>
<feComposite in2="hardAlpha" operator="out"/>
<feColorMatrix type="matrix" values="0 0 0 0 0 0 0 0 0 0 0 0 0 0 0 0 0 0 0.15 0"/>
<feBlend mode="normal" in2="BackgroundImageFix" result="effect1_dropShadow_170_6371"/>
<feBlend mode="normal" in="SourceGraphic" in2="effect1_dropShadow_170_6371" result="shape"/>
</filter>
<linearGradient id="paint0_linear_170_6371" x1="69.5442" y1="251.053" x2="-55.6977" y2="206.336" gradientUnits="userSpaceOnUse">
<stop stop-color="#7345D3"/>
<stop offset="0.644291" stop-color="#5470F0"/>
<stop offset="0.976972" stop-color="#1858CD"/>
</linearGradient>
<linearGradient id="paint1_linear_170_6371" x1="34.9798" y1="251.054" x2="-90.2626" y2="206.335" gradientUnits="userSpaceOnUse">
<stop stop-color="#7345D3"/>
<stop offset="0.644291" stop-color="#5470F0"/>
<stop offset="0.976972" stop-color="#1858CD"/>
</linearGradient>
</defs>
</svg>
