<svg width="31" height="30" viewBox="0 0 31 30" fill="none" xmlns="http://www.w3.org/2000/svg">
<path d="M2.92041 16.7827C5.22018 13.4723 6.57297 11.3395 7.55926 9.76343C3.76889 10.0987 0.135742 14.8151 0.135742 14.8151L2.63759 17.3168C2.71019 17.1318 2.80288 16.9522 2.92041 16.7827Z" fill="url(#paint0_linear_280_4406)"/>
<path d="M12.6885 27.3681L15.1887 29.8682C15.1887 29.8682 19.9049 26.2353 20.2402 22.4451C18.6646 23.431 16.5325 24.7833 13.221 27.0836C13.0535 27.1999 12.8749 27.2948 12.6885 27.3681Z" fill="url(#paint1_linear_280_4406)"/>
<path d="M8.88542 26.0754C8.45623 26.2488 8.03442 26.4331 7.59466 26.5801C6.42007 26.9727 5.21035 27.2379 3.98384 27.4072C3.46972 27.4782 2.95086 27.5383 2.43111 27.5777C2.43606 27.5136 2.44082 27.4493 2.44626 27.3853C2.5535 26.1356 2.74364 24.8924 3.05082 23.6755C3.19884 23.0882 3.38771 22.5173 3.59046 21.9472C3.71654 21.5927 3.87387 21.2535 4.03256 20.9143L3.7575 20.6394C3.14575 21.0503 2.61368 21.5696 2.16217 22.1571C1.49374 23.027 0.992726 24.0125 0.642446 25.051C0.266156 26.1661 0.0417593 27.3471 0.00681868 28.5244C0.00186876 28.6898 -0.00948693 28.8588 0.0161362 29.0229C0.0491356 29.2349 0.142214 29.4355 0.282073 29.5981C0.420477 29.7589 0.602653 29.8803 0.804532 29.9454C0.973994 30.0001 1.14443 30.0011 1.3202 29.9997C2.38899 29.9908 3.47438 29.8051 4.49746 29.5011C6.36863 28.9452 8.25765 27.8993 9.36488 26.2466L9.0972 25.9791C9.02703 26.0121 8.95666 26.0444 8.88542 26.0754Z" fill="url(#paint2_linear_280_4406)"/>
<path d="M29.6995 0.303886C29.6995 0.303886 29.6993 0.303789 29.6991 0.303595C29.5044 0.108995 29.2405 0 28.9658 0C28.959 0 28.9521 9.70573e-05 28.9453 0.000194115C25.6056 0.0657078 17.3657 0.690368 12.9898 5.06649C11.0033 7.05296 10.3577 8.08701 8.94261 10.3531C7.92351 11.9846 6.52831 14.2194 3.97843 17.8895C3.69201 18.302 3.7418 18.8604 4.09693 19.2153L10.7869 25.9054C10.9876 26.1062 11.2535 26.2094 11.521 26.2094C11.7267 26.2094 11.9333 26.1485 12.1127 26.024C15.7842 23.4735 18.018 22.0786 19.649 21.0599C21.9149 19.6449 22.9491 18.9991 24.936 17.0124C29.3197 12.6285 29.94 4.39407 30.0029 1.05715C30.0084 0.775391 29.8987 0.503436 29.6995 0.303886ZM21.9527 12.9269C20.6058 14.2736 18.4224 14.2736 17.0755 12.9269C15.7285 11.58 15.7287 9.3967 17.0757 8.04993C18.4224 6.70307 20.6058 6.70287 21.9527 8.04964C23.2991 9.39641 23.2993 11.5802 21.9527 12.9269Z" fill="url(#paint3_linear_280_4406)"/>
<defs>
<linearGradient id="paint0_linear_280_4406" x1="8.07924" y1="13.8767" x2="4.23783" y2="-22.2583" gradientUnits="userSpaceOnUse">
<stop offset="0.0416667" stop-color="#4E9CDB"/>
<stop offset="0.46875" stop-color="#5761D7"/>
<stop offset="0.9999" stop-color="#7628DA"/>
</linearGradient>
<linearGradient id="paint1_linear_280_4406" x1="20.7692" y1="26.4874" x2="17.1194" y2="-9.05089" gradientUnits="userSpaceOnUse">
<stop offset="0.0416667" stop-color="#4E9CDB"/>
<stop offset="0.46875" stop-color="#5761D7"/>
<stop offset="0.9999" stop-color="#7628DA"/>
</linearGradient>
<linearGradient id="paint2_linear_280_4406" x1="10.0208" y1="25.7368" x2="5.34249" y2="-19.0613" gradientUnits="userSpaceOnUse">
<stop offset="0.0416667" stop-color="#4E9CDB"/>
<stop offset="0.46875" stop-color="#5761D7"/>
<stop offset="0.9999" stop-color="#7628DA"/>
</linearGradient>
<linearGradient id="paint3_linear_280_4406" x1="31.8389" y1="14.2725" x2="18.7341" y2="-111.16" gradientUnits="userSpaceOnUse">
<stop offset="0.0416667" stop-color="#4E9CDB"/>
<stop offset="0.46875" stop-color="#5761D7"/>
<stop offset="0.9999" stop-color="#7628DA"/>
</linearGradient>
</defs>
</svg>
