<svg width="17" height="15" viewBox="0 0 17 15" fill="none" xmlns="http://www.w3.org/2000/svg">
<path d="M0.609375 4.59784V14.0162C0.609375 14.3956 0.918077 14.7043 1.29749 14.7043H3.22235V3.90973H1.29749C0.918019 3.90973 0.609375 4.21843 0.609375 4.59784Z" fill="url(#paint0_linear_168_5451)"/>
<path d="M3.74023 3.90973H13.303V14.7043H3.74023V3.90973Z" fill="url(#paint1_linear_168_5451)"/>
<path d="M15.7452 3.90973H13.8203V14.7043H15.7452C16.1246 14.7043 16.4333 14.3956 16.4333 14.0162V4.59784C16.4333 4.21843 16.1246 3.90973 15.7452 3.90973Z" fill="url(#paint2_linear_168_5451)"/>
<path d="M8.52089 1.45802C9.64249 1.45802 10.5696 2.30466 10.6981 3.39229H11.9871C11.8542 1.59562 10.3509 0.174133 8.52089 0.174133C6.69083 0.174133 5.18758 1.59562 5.05469 3.39229H6.34369C6.47218 2.30466 7.39929 1.45802 8.52089 1.45802Z" fill="url(#paint3_linear_168_5451)"/>
<defs>
<linearGradient id="paint0_linear_168_5451" x1="5.01961" y1="14.4692" x2="-13.2711" y2="-7.71056" gradientUnits="userSpaceOnUse">
<stop offset="0.104232" stop-color="#93CAF7"/>
<stop offset="0.554846" stop-color="#6773FF"/>
<stop offset="0.9999" stop-color="#7628DA"/>
</linearGradient>
<linearGradient id="paint1_linear_168_5451" x1="19.8805" y1="14.4692" x2="11.8895" y2="-20.9935" gradientUnits="userSpaceOnUse">
<stop offset="0.104232" stop-color="#93CAF7"/>
<stop offset="0.554846" stop-color="#6773FF"/>
<stop offset="0.9999" stop-color="#7628DA"/>
</linearGradient>
<linearGradient id="paint2_linear_168_5451" x1="18.2305" y1="14.4692" x2="-0.0601712" y2="-7.71056" gradientUnits="userSpaceOnUse">
<stop offset="0.104232" stop-color="#93CAF7"/>
<stop offset="0.554846" stop-color="#6773FF"/>
<stop offset="0.9999" stop-color="#7628DA"/>
</linearGradient>
<linearGradient id="paint3_linear_168_5451" x1="16.7553" y1="3.32221" x2="15.7346" y2="-7.69242" gradientUnits="userSpaceOnUse">
<stop offset="0.104232" stop-color="#93CAF7"/>
<stop offset="0.554846" stop-color="#6773FF"/>
<stop offset="0.9999" stop-color="#7628DA"/>
</linearGradient>
</defs>
</svg>
