<svg width="18" height="18" viewBox="0 0 18 18" fill="none" xmlns="http://www.w3.org/2000/svg">
<path d="M9 0.917969C4.30576 0.917969 0.5 4.72373 0.5 9.41797C0.5 14.1122 4.30576 17.918 9 17.918C13.6942 17.918 17.5 14.1122 17.5 9.41797C17.5 4.72373 13.6942 0.917969 9 0.917969ZM11.4416 12.769C11.0708 13.2202 10.5881 13.5246 10.0249 13.6785C9.78004 13.7449 9.66811 13.8743 9.6821 14.1297C9.69259 14.3815 9.6821 14.6299 9.6786 14.8818C9.6786 15.1056 9.56317 15.2246 9.3428 15.2316C9.19938 15.235 9.05597 15.2385 8.91255 15.2385C8.78663 15.2385 8.6607 15.2385 8.53477 15.235C8.29691 15.2315 8.18498 15.0951 8.18498 14.8643C8.18148 14.6824 8.18148 14.497 8.18148 14.3151C8.17798 13.9093 8.16399 13.8953 7.77572 13.8324C7.27901 13.7519 6.7893 13.64 6.33457 13.4196C5.97778 13.2447 5.9393 13.1573 6.04074 12.7795C6.1177 12.4997 6.19465 12.2198 6.2821 11.9435C6.34506 11.7406 6.40453 11.6497 6.51296 11.6497C6.57593 11.6497 6.65638 11.6811 6.76482 11.7371C7.26852 11.9995 7.8037 12.1464 8.36687 12.2163C8.46132 12.2268 8.55576 12.2338 8.65021 12.2338C8.91255 12.2338 9.1679 12.1848 9.41625 12.0764C10.0424 11.8036 10.1403 11.0795 9.61214 10.6457C9.43375 10.4988 9.22737 10.3904 9.01399 10.296C8.46482 10.0546 7.89465 9.8727 7.37696 9.56139C6.53745 9.05768 6.00576 8.36859 6.06872 7.34719C6.13868 6.19287 6.7928 5.47229 7.85267 5.08752C8.28992 4.93011 8.29342 4.93361 8.29342 4.47887C8.29342 4.32497 8.28992 4.17106 8.29691 4.01365C8.30741 3.67085 8.36338 3.61138 8.70617 3.60089C8.74465 3.60089 8.78663 3.60089 8.8251 3.60089C8.89156 3.60089 8.95802 3.60089 9.02449 3.60089C9.05247 3.60089 9.08045 3.60089 9.10494 3.60089C9.75556 3.60089 9.75556 3.62887 9.75905 4.33196C9.76255 4.84966 9.76255 4.84966 10.2767 4.93011C10.672 4.99307 11.0463 5.1085 11.4101 5.26941C11.6095 5.35686 11.6864 5.49678 11.6235 5.71015C11.5325 6.02496 11.4451 6.34328 11.3471 6.65459C11.2842 6.84348 11.2247 6.93093 11.1128 6.93093C11.0498 6.93093 10.9728 6.90645 10.8749 6.85748C10.3712 6.61262 9.843 6.49369 9.29033 6.49369C9.22037 6.49369 9.14691 6.49719 9.07695 6.50069C8.91255 6.51118 8.75165 6.53217 8.59774 6.59863C8.05206 6.83649 7.96461 7.43813 8.42984 7.80892C8.6642 7.9978 8.93354 8.13073 9.20988 8.24616C9.69259 8.44554 10.1753 8.63793 10.6335 8.88978C12.0747 9.69431 12.4665 11.5237 11.4416 12.769Z" fill="url(#paint0_linear_168_5661)"/>
<defs>
<linearGradient id="paint0_linear_168_5661" x1="16.3822" y1="9.41742" x2="1.8867" y2="9.41742" gradientUnits="userSpaceOnUse">
<stop stop-color="#7A6EEE"/>
<stop offset="1" stop-color="#A728DA"/>
</linearGradient>
</defs>
</svg>
